<svg xmlns="http://www.w3.org/2000/svg" width="128.969" height="31.289" viewBox="0 0 128.969 31.289"><g transform="translate(0.043)"><g transform="translate(37.718 6.978)"><path d="M288.142,22h-7.105a1.02,1.02,0,0,0-.988.828l-2.868,18.193a.579.579,0,0,0,.574.669h3.632a.66.66,0,0,0,.669-.574l.828-5.162a.971.971,0,0,1,.988-.828h2.23c4.684,0,7.36-2.262,8.061-6.755a5.59,5.59,0,0,0-.892-4.588C292.315,22.605,290.531,22,288.142,22Zm.828,6.627c-.382,2.549-2.326,2.549-4.206,2.549h-1.083l.765-4.747a.583.583,0,0,1,.574-.51h.478c1.274,0,2.485,0,3.122.733A2.387,2.387,0,0,1,288.97,28.627Z" transform="translate(-226.607 -21.968)" fill="#009cde"/><path d="M129.441,22h-7.105a1.02,1.02,0,0,0-.988.828l-2.868,18.193a.579.579,0,0,0,.574.669h3.377a1.02,1.02,0,0,0,.988-.828l.765-4.907a.971.971,0,0,1,.988-.828h2.23c4.684,0,7.36-2.262,8.061-6.755a5.59,5.59,0,0,0-.892-4.588C133.615,22.605,131.831,22,129.441,22Zm.828,6.627c-.382,2.549-2.326,2.549-4.206,2.549h-1.083l.765-4.747a.583.583,0,0,1,.574-.51h.478c1.274,0,2.485,0,3.122.733A2.386,2.386,0,0,1,130.27,28.627Z" transform="translate(-118.472 -21.968)" fill="#003087"/><path d="M185.049,41.819h-3.409a.584.584,0,0,0-.574.51l-.159.956-.223-.35c-.733-1.051-2.358-1.434-4.015-1.434a7.809,7.809,0,0,0-7.583,6.819,6.41,6.41,0,0,0,1.274,5.225,5.355,5.355,0,0,0,4.27,1.721,6.429,6.429,0,0,0,4.684-1.944l-.159.956a.579.579,0,0,0,.574.669h3.059a1.02,1.02,0,0,0,.988-.828l1.848-11.63A.576.576,0,0,0,185.049,41.819Zm-4.716,6.627a3.788,3.788,0,0,1-3.823,3.25,2.653,2.653,0,0,1-2.836-3.314,3.835,3.835,0,0,1,3.792-3.282,2.732,2.732,0,0,1,2.868,3.346Z" transform="translate(-152.891 -35.255)" fill="#003087"/><path d="M343.749,41.819H340.34a.583.583,0,0,0-.574.51l-.159.956-.223-.35c-.733-1.051-2.358-1.434-4.015-1.434a7.809,7.809,0,0,0-7.583,6.819,6.41,6.41,0,0,0,1.274,5.225,5.355,5.355,0,0,0,4.27,1.721,6.429,6.429,0,0,0,4.684-1.944l-.159.956a.579.579,0,0,0,.574.669h3.059a1.02,1.02,0,0,0,.988-.828l1.848-11.63A.576.576,0,0,0,343.749,41.819Zm-4.716,6.627a3.788,3.788,0,0,1-3.824,3.25,2.653,2.653,0,0,1-2.836-3.314,3.835,3.835,0,0,1,3.792-3.282,2.732,2.732,0,0,1,2.868,3.346Z" transform="translate(-261.026 -35.255)" fill="#009cde"/><path d="M242.27,42.5h-3.409a1,1,0,0,0-.828.446l-4.716,6.946-2.007-6.659a.994.994,0,0,0-.956-.7h-3.346a.609.609,0,0,0-.574.8l3.76,11.024-3.537,4.971a.582.582,0,0,0,.478.924h3.409a.953.953,0,0,0,.8-.414l11.343-16.377A.564.564,0,0,0,242.27,42.5Z" transform="translate(-192.015 -35.936)" fill="#003087"/><path d="M384.48,22.41l-2.9,18.512a.579.579,0,0,0,.574.669h2.931a1.02,1.02,0,0,0,.988-.828l2.868-18.193a.579.579,0,0,0-.573-.669h-3.282A.62.62,0,0,0,384.48,22.41Z" transform="translate(-297.743 -21.9)" fill="#009cde"/></g><g transform="translate(-0.043 0)"><path d="M23.867,7.934c.382-2.422,0-4.078-1.306-5.576C21.1.7,18.482,0,15.137,0H5.419a1.4,1.4,0,0,0-1.37,1.179L-.03,26.86a.822.822,0,0,0,.828.956h5.99l-.414,2.613a.729.729,0,0,0,.733.828h5.066a1.233,1.233,0,0,0,1.211-1.02l.064-.255.956-6.054.064-.319a1.2,1.2,0,0,1,1.211-1.02h.765c4.907,0,8.73-1.975,9.845-7.743.478-2.422.223-4.429-1.02-5.831a5.313,5.313,0,0,0-1.4-1.083h0" transform="translate(0.043 0)" fill="#009cde"/><path d="M23.867,7.934c.382-2.422,0-4.078-1.306-5.576C21.1.7,18.482,0,15.137,0H5.419a1.4,1.4,0,0,0-1.37,1.179L-.03,26.86a.822.822,0,0,0,.828.956h5.99l1.5-9.559-.032.287a1.376,1.376,0,0,1,1.37-1.179h2.868c5.608,0,10-2.262,11.279-8.858l.1-.574" transform="translate(0.043 0)" fill="#012169"/><path d="M9.943,7.966a1.263,1.263,0,0,1,.669-.924,1.5,1.5,0,0,1,.51-.127h7.647a15.541,15.541,0,0,1,2.517.191,3.759,3.759,0,0,1,.637.127,3.361,3.361,0,0,1,.605.159l.287.1a8.023,8.023,0,0,1,1.051.446c.382-2.422,0-4.078-1.306-5.576C21.1.7,18.482,0,15.137,0H5.419a1.4,1.4,0,0,0-1.37,1.179L-.03,26.86a.822.822,0,0,0,.828.956h5.99l1.5-9.559Z" transform="translate(0.043 0)" fill="#003087"/></g></g></svg>