<svg xmlns="http://www.w3.org/2000/svg" width="33.74" height="37.742" viewBox="0 0 33.74 37.742"><g transform="translate(-1227.25 -149)"><path d="M18.508,28.956h3.224V27.344h1.612a1.617,1.617,0,0,0,1.612-1.612V20.9a1.617,1.617,0,0,0-1.612-1.612H18.508V17.672h6.448V14.448H21.732V12.836H18.508v1.612H16.9a1.617,1.617,0,0,0-1.612,1.612V20.9A1.617,1.617,0,0,0,16.9,22.508h4.836V24.12H15.284v3.224h3.224ZM33.015,8H7.224a3.209,3.209,0,0,0-3.208,3.224L4,30.568a3.223,3.223,0,0,0,3.224,3.224H33.015a3.223,3.223,0,0,0,3.224-3.224V11.224A3.223,3.223,0,0,0,33.015,8Zm0,22.568H7.224V11.224H33.015Z" transform="translate(1224 152.2)" fill="#fff" stroke="#059dde" stroke-width="1.5"/><path d="M24.981,20l-4-4v3H12.942v2h8.043v3Z" transform="translate(1224 173.981) rotate(-90)" fill="#fff"/></g></svg>