<svg xmlns="http://www.w3.org/2000/svg" xmlns:xlink="http://www.w3.org/1999/xlink" width="77" height="54" viewBox="0 0 77 54"><defs><filter id="a" x="0" y="0" width="77" height="54" filterUnits="userSpaceOnUse"><feOffset dy="3" input="SourceAlpha"/><feGaussianBlur stdDeviation="3" result="b"/><feFlood flood-opacity="0.09"/><feComposite operator="in" in2="b"/><feComposite in="SourceGraphic"/></filter></defs><g transform="translate(-726 -727)"><g transform="matrix(1, 0, 0, 1, 726, 727)" filter="url(#a)"><rect width="59" height="36" rx="6" transform="translate(9 6)" fill="#fff"/></g><g transform="translate(-76 390)"><g transform="translate(818 339)"><g transform="translate(3.533 16.214)"><path d="M27.5,63.495H24.436l1.914-11.765h3.063ZM21.86,51.729l-2.92,8.092-.346-1.743h0l-1.031-5.291a1.311,1.311,0,0,0-1.453-1.059H11.283l-.057.2a11.459,11.459,0,0,1,3.2,1.345l2.661,10.222h3.192l4.873-11.766ZM45.953,63.495h2.813L46.313,51.729H43.851a1.407,1.407,0,0,0-1.414.877L37.868,63.495h3.193l.639-1.748h3.894l.359,1.748Zm-3.371-4.162,1.609-4.4.905,4.4Zm-4.474-4.774.437-2.527a8.841,8.841,0,0,0-2.755-.513c-1.52,0-5.13.664-5.13,3.895,0,3.04,4.237,3.077,4.237,4.674s-3.8,1.31-5.054.3l-.455,2.642a8.584,8.584,0,0,0,3.457.664c2.09,0,5.244-1.082,5.244-4.028,0-3.059-4.275-3.344-4.275-4.674s2.983-1.159,4.294-.437Z" transform="translate(-11.226 -51.519)" fill="#2566af"/></g><path d="M18.594,58.536l-1.031-5.291a1.311,1.311,0,0,0-1.453-1.059H11.283l-.057.2a11.868,11.868,0,0,1,4.546,2.283A9.174,9.174,0,0,1,18.594,58.536Z" transform="translate(-7.693 -35.762)" fill="#e6a540"/><path d="M0,0H44.605V44.605H0Z" fill="none"/></g></g></g></svg>